<svg xmlns="http://www.w3.org/2000/svg" version="1.1" xmlns:xlink="http://www.w3.org/1999/xlink" xmlns:svgjs="http://svgjs.dev/svgjs" width="1500" height="541" viewBox="0 0 1500 541"><g transform="matrix(1,0,0,1,-0.9090909090909918,0.9066277912823466)"><svg viewBox="0 0 396 143" data-background-color="#ffffff" preserveAspectRatio="xMidYMid meet" height="541" width="1500" xmlns="http://www.w3.org/2000/svg" xmlns:xlink="http://www.w3.org/1999/xlink"><g id="tight-bounds" transform="matrix(1,0,0,1,0.2400000000000091,-0.239644684202176)"><svg viewBox="0 0 395.52 143.47928936840432" height="143.47928936840432" width="395.52"><g><svg viewBox="0 0 659.6775943789919 239.30540163267656" height="143.47928936840432" width="395.52"><g transform="matrix(1,0,0,1,264.1575943789919,28.71017436954301)"><svg viewBox="0 0 395.52 181.88505289359054" height="181.88505289359054" width="395.52"><g id="textblocktransform"><svg viewBox="0 0 395.52 181.88505289359054" height="181.88505289359054" width="395.52" id="textblock"><g><svg viewBox="0 0 395.52 181.88505289359054" height="181.88505289359054" width="395.52"><g transform="matrix(1,0,0,1,0,0)"><svg width="395.52" viewBox="0.700000000000002 -33.6 162.45000000000002 70.9" height="181.88505289359054" data-palette-color="#3581c4"><svg></svg><svg></svg><g class="wordmark-text-0" data-fill-palette-color="primary" id="text-0"><path d="M21.35 0v-0.5h0.25c0.8 0 1.2-0.367 1.2-1.1v0c0-0.267-0.05-0.55-0.15-0.85v0l-4.5-12.15h-8.75l-4.35 11.95c-0.1 0.267-0.15 0.517-0.15 0.75v0c0 0.433 0.117 0.773 0.35 1.02 0.233 0.253 0.483 0.38 0.75 0.38v0h0.25v0.5h-5.55v-0.5h0.25c0.433 0 0.86-0.26 1.28-0.78 0.413-0.513 0.753-1.12 1.02-1.82v0l11.45-30.5 11.2 30.2c0.233 0.667 0.56 1.317 0.98 1.95 0.413 0.633 0.953 0.95 1.62 0.95v0h0.25v0.5zM13.75-26.75l-3.85 10.45h7.7zM45.45-20.4l-1.5 3.05c-0.4-0.667-0.817-1.083-1.25-1.25-0.433-0.167-0.933-0.25-1.5-0.25v0c-0.367 0-0.76 0.083-1.18 0.25-0.413 0.167-0.82 0.383-1.22 0.65-0.4 0.267-0.79 0.56-1.17 0.88-0.387 0.313-0.713 0.603-0.98 0.87v0 13c0 0.267 0.033 0.55 0.1 0.85 0.067 0.3 0.177 0.59 0.33 0.87 0.147 0.287 0.313 0.52 0.5 0.7 0.18 0.187 0.403 0.28 0.67 0.28v0 0.5h-6.5v-0.5c0.233 0 0.45-0.093 0.65-0.28 0.2-0.18 0.373-0.413 0.52-0.7 0.153-0.28 0.263-0.57 0.33-0.87 0.067-0.3 0.1-0.583 0.1-0.85v0-13.95c0-0.467-0.15-0.933-0.45-1.4-0.3-0.467-0.733-0.767-1.3-0.9v0-0.4l5.05-1.5v3c0.3-0.367 0.617-0.727 0.95-1.08 0.333-0.347 0.71-0.663 1.13-0.95 0.413-0.28 0.87-0.513 1.37-0.7 0.5-0.18 1.083-0.27 1.75-0.27v0c0.467 0 1.067 0.1 1.8 0.3 0.733 0.2 1.333 0.417 1.8 0.65zM68.7-12.9v9.65c0 0.267 0.033 0.557 0.1 0.87 0.067 0.32 0.177 0.613 0.33 0.88 0.147 0.267 0.313 0.5 0.5 0.7 0.18 0.2 0.403 0.3 0.67 0.3v0 0.5h-6.45v-0.5c0.233 0 0.45-0.1 0.65-0.3 0.2-0.2 0.377-0.433 0.53-0.7 0.147-0.267 0.253-0.56 0.32-0.88 0.067-0.313 0.1-0.603 0.1-0.87v0-9.3c0-1.2-0.167-2.25-0.5-3.15-0.333-0.9-0.783-1.65-1.35-2.25-0.567-0.6-1.207-1.043-1.92-1.33-0.72-0.28-1.447-0.42-2.18-0.42v0c-0.733 0-1.457 0.15-2.17 0.45-0.72 0.3-1.353 0.693-1.9 1.18-0.553 0.48-1.003 1.043-1.35 1.69-0.353 0.653-0.53 1.33-0.53 2.03v0 11.1c0 0.267 0.033 0.557 0.1 0.87 0.067 0.32 0.177 0.613 0.33 0.88 0.147 0.267 0.313 0.5 0.5 0.7 0.18 0.2 0.403 0.3 0.67 0.3v0 0.5h-6.5v-0.5c0.233 0 0.45-0.1 0.65-0.3 0.2-0.2 0.377-0.433 0.53-0.7 0.147-0.267 0.253-0.56 0.32-0.88 0.067-0.313 0.1-0.603 0.1-0.87v0-13.8c0-0.567-0.083-1.11-0.25-1.63-0.167-0.513-0.65-0.787-1.45-0.82v0-0.45l5-1.6v2.75c0.233-0.267 0.533-0.56 0.9-0.88 0.367-0.313 0.81-0.613 1.33-0.9 0.513-0.28 1.113-0.513 1.8-0.7 0.68-0.18 1.487-0.27 2.42-0.27v0c1.567 0 2.9 0.267 4 0.8 1.1 0.533 2 1.223 2.7 2.07 0.7 0.853 1.207 1.787 1.52 2.8 0.32 1.02 0.48 2.013 0.48 2.98zM93.25 0h-4.85v-2.55l-0.25 0.25c-0.833 0.833-1.79 1.483-2.87 1.95-1.087 0.467-2.397 0.7-3.93 0.7v0c-1.167 0-2.167-0.133-3-0.4-0.833-0.267-1.517-0.643-2.05-1.13-0.533-0.48-0.923-1.037-1.17-1.67-0.253-0.633-0.38-1.3-0.38-2v0c0-1.133 0.307-2.133 0.92-3 0.62-0.867 1.513-1.633 2.68-2.3 1.167-0.667 2.593-1.277 4.28-1.83 1.68-0.547 3.603-1.087 5.77-1.62v0c-0.067-1.3-0.333-2.35-0.8-3.15-0.467-0.8-1.017-1.427-1.65-1.88-0.633-0.447-1.3-0.747-2-0.9-0.7-0.147-1.3-0.22-1.8-0.22v0c-0.867 0-1.623 0.133-2.27 0.4-0.653 0.267-1.223 0.61-1.71 1.03-0.48 0.413-0.887 0.86-1.22 1.34-0.333 0.487-0.6 0.947-0.8 1.38v0h-0.45v-3.65c0.267-0.033 0.517-0.117 0.75-0.25 0.233-0.133 0.517-0.267 0.85-0.4v0c0.5-0.2 1.183-0.493 2.05-0.88 0.867-0.38 2.083-0.57 3.65-0.57v0c1.833 0 3.317 0.233 4.45 0.7 1.133 0.467 2.01 1.083 2.63 1.85 0.613 0.767 1.02 1.64 1.22 2.62 0.2 0.987 0.3 1.997 0.3 3.03v0 9.9c0 0.667 0.15 1.29 0.45 1.87 0.3 0.587 0.7 0.88 1.2 0.88v0zM87.85-4.15l0.55-0.6v-7.15l-0.5 0.1c-0.8 0.2-1.773 0.467-2.92 0.8-1.153 0.333-2.247 0.767-3.28 1.3-1.033 0.533-1.917 1.167-2.65 1.9-0.733 0.733-1.1 1.583-1.1 2.55v0c0 1.067 0.433 1.95 1.3 2.65 0.867 0.7 2 1.05 3.4 1.05v0c1.1 0 2.067-0.24 2.9-0.72 0.833-0.487 1.6-1.113 2.3-1.88zM116.1 0h-4.85v-2.55l-0.25 0.25c-0.833 0.833-1.79 1.483-2.87 1.95-1.087 0.467-2.397 0.7-3.93 0.7v0c-1.167 0-2.167-0.133-3-0.4-0.833-0.267-1.517-0.643-2.05-1.13-0.533-0.48-0.923-1.037-1.17-1.67-0.253-0.633-0.38-1.3-0.38-2v0c0-1.133 0.31-2.133 0.93-3 0.613-0.867 1.503-1.633 2.67-2.3 1.167-0.667 2.593-1.277 4.28-1.83 1.68-0.547 3.603-1.087 5.77-1.62v0c-0.067-1.3-0.333-2.35-0.8-3.15-0.467-0.8-1.017-1.427-1.65-1.88-0.633-0.447-1.3-0.747-2-0.9-0.7-0.147-1.3-0.22-1.8-0.22v0c-0.867 0-1.623 0.133-2.27 0.4-0.653 0.267-1.22 0.61-1.7 1.03-0.487 0.413-0.897 0.86-1.23 1.34-0.333 0.487-0.6 0.947-0.8 1.38v0h-0.45v-3.65c0.267-0.033 0.517-0.117 0.75-0.25 0.233-0.133 0.517-0.267 0.85-0.4v0c0.5-0.2 1.183-0.493 2.05-0.88 0.867-0.38 2.083-0.57 3.65-0.57v0c1.833 0 3.317 0.233 4.45 0.7 1.133 0.467 2.01 1.083 2.63 1.85 0.613 0.767 1.02 1.64 1.22 2.62 0.2 0.987 0.3 1.997 0.3 3.03v0 9.9c0 0.667 0.15 1.29 0.45 1.87 0.3 0.587 0.7 0.88 1.2 0.88v0zM110.7-4.15l0.55-0.6v-7.15l-0.5 0.1c-0.8 0.2-1.773 0.467-2.92 0.8-1.153 0.333-2.247 0.767-3.28 1.3-1.033 0.533-1.917 1.167-2.65 1.9-0.733 0.733-1.1 1.583-1.1 2.55v0c0 1.067 0.433 1.95 1.3 2.65 0.867 0.7 2 1.05 3.4 1.05v0c1.1 0 2.067-0.24 2.9-0.72 0.833-0.487 1.6-1.113 2.3-1.88zM138.25 0h-18.95l13.7-19.25h-8.2c-0.567 0-1.083 0.117-1.55 0.35-0.467 0.233-0.857 0.533-1.17 0.9-0.32 0.367-0.563 0.76-0.73 1.18-0.167 0.413-0.25 0.803-0.25 1.17v0h-0.5v-5.35h17.65l-13.7 19.2h9.3c0.733 0 1.35-0.117 1.85-0.35 0.5-0.233 0.91-0.527 1.23-0.88 0.313-0.347 0.537-0.737 0.67-1.17 0.133-0.433 0.2-0.833 0.2-1.2v0h0.45z" fill="#3581c4" fill-rule="nonzero" stroke="none" stroke-width="1" stroke-linecap="butt" stroke-linejoin="miter" stroke-miterlimit="10" stroke-dasharray="" stroke-dashoffset="0" font-family="none" font-weight="none" font-size="none" text-anchor="none" style="mix-blend-mode: normal" data-fill-palette-color="primary" opacity="1"></path><path transform="translate(0,36.95)" d="M2.45-32.5v-0.5h7.15v0.5h-0.25c-0.233 0-0.45 0.09-0.65 0.27-0.2 0.187-0.367 0.403-0.5 0.65-0.133 0.253-0.24 0.537-0.32 0.85-0.087 0.32-0.13 0.597-0.13 0.83v0 26.65c0 0.267 0.033 0.557 0.1 0.87 0.067 0.32 0.177 0.613 0.33 0.88 0.147 0.267 0.313 0.5 0.5 0.7 0.18 0.2 0.403 0.3 0.67 0.3v0h0.25v0.5h-7.15v-0.5h0.25c0.267 0 0.5-0.093 0.7-0.28 0.2-0.18 0.377-0.413 0.53-0.7 0.147-0.28 0.253-0.58 0.32-0.9 0.067-0.313 0.1-0.603 0.1-0.87v0-26.65c0-0.233-0.033-0.5-0.1-0.8-0.067-0.3-0.173-0.583-0.32-0.85-0.153-0.267-0.33-0.493-0.53-0.68-0.2-0.18-0.433-0.27-0.7-0.27v0zM34.5-12.9v9.65c0 0.267 0.033 0.557 0.1 0.87 0.067 0.32 0.177 0.613 0.33 0.88 0.147 0.267 0.313 0.5 0.5 0.7 0.18 0.2 0.403 0.3 0.67 0.3v0 0.5h-6.45v-0.5c0.233 0 0.45-0.1 0.65-0.3 0.2-0.2 0.377-0.433 0.53-0.7 0.147-0.267 0.253-0.56 0.32-0.88 0.067-0.313 0.1-0.603 0.1-0.87v0-9.3c0-1.2-0.167-2.25-0.5-3.15-0.333-0.9-0.783-1.65-1.35-2.25-0.567-0.6-1.207-1.043-1.92-1.33-0.72-0.28-1.447-0.42-2.18-0.42v0c-0.733 0-1.457 0.15-2.17 0.45-0.72 0.3-1.353 0.693-1.9 1.18-0.553 0.48-1.003 1.043-1.35 1.69-0.353 0.653-0.53 1.33-0.53 2.03v0 11.1c0 0.267 0.033 0.557 0.1 0.87 0.067 0.32 0.173 0.613 0.32 0.88 0.153 0.267 0.32 0.5 0.5 0.7 0.187 0.2 0.413 0.3 0.68 0.3v0 0.5h-6.5v-0.5c0.233 0 0.45-0.1 0.65-0.3 0.2-0.2 0.377-0.433 0.53-0.7 0.147-0.267 0.253-0.56 0.32-0.88 0.067-0.313 0.1-0.603 0.1-0.87v0-13.8c0-0.567-0.083-1.11-0.25-1.63-0.167-0.513-0.65-0.787-1.45-0.82v0-0.45l5-1.6v2.75c0.233-0.267 0.533-0.56 0.9-0.88 0.367-0.313 0.81-0.613 1.33-0.9 0.513-0.28 1.113-0.513 1.8-0.7 0.68-0.18 1.487-0.27 2.42-0.27v0c1.567 0 2.9 0.267 4 0.8 1.1 0.533 2 1.223 2.7 2.07 0.7 0.853 1.207 1.787 1.52 2.8 0.32 1.02 0.48 2.013 0.48 2.98zM51.3-19.3h-5.65v16.05c0 0.267 0.033 0.557 0.1 0.87 0.067 0.32 0.177 0.613 0.33 0.88 0.147 0.267 0.313 0.5 0.5 0.7 0.18 0.2 0.403 0.3 0.67 0.3v0 0.5h-6.5v-0.5c0.233 0 0.45-0.1 0.65-0.3 0.2-0.2 0.373-0.433 0.52-0.7 0.153-0.267 0.263-0.56 0.33-0.88 0.067-0.313 0.1-0.603 0.1-0.87v0-16.05h-2.5v-1.7h2.5v-4.05c0-1.033 0.033-2.033 0.1-3 0.067-0.967 0.267-1.833 0.6-2.6 0.333-0.767 0.843-1.383 1.53-1.85 0.68-0.467 1.62-0.7 2.82-0.7v0c0.667 0 1.243 0.073 1.73 0.22 0.48 0.153 0.897 0.32 1.25 0.5 0.347 0.187 0.637 0.353 0.87 0.5 0.233 0.153 0.433 0.23 0.6 0.23v0 3.65h-0.45c-0.167-0.967-0.6-1.777-1.3-2.43-0.7-0.647-1.4-0.97-2.1-0.97v0c-0.967 0-1.6 0.507-1.9 1.52-0.3 1.02-0.45 2.43-0.45 4.23v0 4.75h5.65zM65.5 0.35v0c-1.667 0-3.167-0.277-4.5-0.83-1.333-0.547-2.473-1.297-3.42-2.25-0.953-0.947-1.687-2.07-2.2-3.37-0.52-1.3-0.78-2.717-0.78-4.25v0c0-1.633 0.283-3.127 0.85-4.48 0.567-1.347 1.35-2.503 2.35-3.47 1-0.967 2.183-1.717 3.55-2.25 1.367-0.533 2.85-0.8 4.45-0.8v0c1.6 0 3.067 0.257 4.4 0.77 1.333 0.52 2.483 1.247 3.45 2.18 0.967 0.933 1.717 2.04 2.25 3.32 0.533 1.287 0.8 2.697 0.8 4.23v0c0 1.433-0.243 2.823-0.73 4.17-0.48 1.353-1.193 2.547-2.14 3.58-0.953 1.033-2.12 1.867-3.5 2.5-1.387 0.633-2.997 0.95-4.83 0.95zM65.2-19.7v0c-1.2 0.067-2.26 0.36-3.18 0.88-0.913 0.513-1.677 1.18-2.29 2-0.62 0.813-1.087 1.737-1.4 2.77-0.32 1.033-0.48 2.083-0.48 3.15v0c0 1.233 0.19 2.423 0.57 3.57 0.387 1.153 0.94 2.18 1.66 3.08 0.713 0.9 1.57 1.617 2.57 2.15 1 0.533 2.117 0.8 3.35 0.8v0c1.233 0 2.327-0.267 3.28-0.8 0.947-0.533 1.737-1.223 2.37-2.07 0.633-0.853 1.11-1.813 1.43-2.88 0.313-1.067 0.47-2.133 0.47-3.2v0c0-1.1-0.167-2.21-0.5-3.33-0.333-1.113-0.85-2.13-1.55-3.05-0.7-0.913-1.573-1.653-2.62-2.22-1.053-0.567-2.28-0.85-3.68-0.85zM91.65-19.3h-5.6v12.05c0 0.867 0.017 1.65 0.05 2.35 0.033 0.7 0.117 1.283 0.25 1.75 0.133 0.467 0.333 0.823 0.6 1.07 0.267 0.253 0.633 0.38 1.1 0.38v0c0.7 0 1.36-0.333 1.98-1 0.613-0.667 1.003-1.467 1.17-2.4v0h0.45v3.65c-0.3 0-0.55 0.1-0.75 0.3v0c-0.267 0.233-0.64 0.483-1.12 0.75-0.487 0.267-1.213 0.4-2.18 0.4v0c-1.2 0-2.133-0.233-2.8-0.7-0.667-0.467-1.15-1.083-1.45-1.85-0.3-0.767-0.473-1.617-0.52-2.55-0.053-0.933-0.08-1.883-0.08-2.85v0-11.35h-2.8v-1.7h2.8v-4.45c0-0.567-0.073-1.093-0.22-1.58-0.153-0.48-0.647-0.737-1.48-0.77v0-0.5l5-1.6v8.9h5.6zM115.5-10.1h-17.35c0.133 1.167 0.417 2.273 0.85 3.32 0.433 1.053 1.01 1.98 1.73 2.78 0.713 0.8 1.587 1.44 2.62 1.92 1.033 0.487 2.233 0.73 3.6 0.73v0c0.733 0 1.51-0.11 2.33-0.33 0.813-0.213 1.57-0.52 2.27-0.92 0.7-0.4 1.327-0.893 1.88-1.48 0.547-0.58 0.92-1.237 1.12-1.97v0h0.45v3.75c-0.2 0-0.423 0.067-0.67 0.2-0.253 0.133-0.547 0.3-0.88 0.5v0c-0.667 0.4-1.567 0.823-2.7 1.27-1.133 0.453-2.633 0.68-4.5 0.68v0c-1.5 0-2.923-0.217-4.27-0.65-1.353-0.433-2.547-1.1-3.58-2-1.033-0.9-1.857-2.05-2.47-3.45-0.62-1.4-0.93-3.067-0.93-5v0c0-1.233 0.21-2.483 0.63-3.75 0.413-1.267 1.047-2.41 1.9-3.43 0.847-1.013 1.937-1.837 3.27-2.47 1.333-0.633 2.933-0.95 4.8-0.95v0c1.667 0 3.127 0.283 4.38 0.85 1.247 0.567 2.28 1.35 3.1 2.35 0.813 1 1.42 2.183 1.82 3.55 0.4 1.367 0.6 2.867 0.6 4.5zM105.4-19.7v0c-1.167 0-2.173 0.233-3.02 0.7-0.853 0.467-1.58 1.067-2.18 1.8-0.6 0.733-1.067 1.567-1.4 2.5-0.333 0.933-0.55 1.867-0.65 2.8v0h14.25c-0.033-0.967-0.207-1.917-0.52-2.85-0.32-0.933-0.763-1.767-1.33-2.5-0.567-0.733-1.283-1.327-2.15-1.78-0.867-0.447-1.867-0.67-3-0.67zM138.1-5.7v3.9c-0.267 0-0.517 0.057-0.75 0.17-0.233 0.12-0.5 0.263-0.8 0.43v0c-0.567 0.333-1.283 0.673-2.15 1.02-0.867 0.353-2 0.53-3.4 0.53v0c-1.7 0-3.273-0.277-4.72-0.83-1.453-0.547-2.703-1.313-3.75-2.3-1.053-0.98-1.87-2.13-2.45-3.45-0.587-1.313-0.88-2.737-0.88-4.27v0c0-1.433 0.26-2.8 0.78-4.1 0.513-1.3 1.253-2.45 2.22-3.45 0.967-1 2.16-1.8 3.58-2.4 1.413-0.6 3.02-0.9 4.82-0.9v0c1.233 0 2.233 0.14 3 0.42 0.767 0.287 1.417 0.563 1.95 0.83v0c0.3 0.167 0.593 0.3 0.88 0.4 0.28 0.1 0.57 0.15 0.87 0.15v0 3.8h-0.5c-0.167-0.633-0.467-1.193-0.9-1.68-0.433-0.48-0.933-0.887-1.5-1.22-0.567-0.333-1.183-0.583-1.85-0.75-0.667-0.167-1.317-0.25-1.95-0.25v0c-1.367 0-2.567 0.24-3.6 0.72-1.033 0.487-1.883 1.12-2.55 1.9-0.667 0.787-1.167 1.68-1.5 2.68-0.333 1-0.5 2.033-0.5 3.1v0c0 1.233 0.2 2.44 0.6 3.62 0.4 1.187 0.977 2.247 1.73 3.18 0.747 0.933 1.653 1.683 2.72 2.25 1.067 0.567 2.267 0.85 3.6 0.85v0c0.933 0 1.793-0.133 2.58-0.4 0.78-0.267 1.447-0.617 2-1.05 0.547-0.433 0.987-0.91 1.32-1.43 0.333-0.513 0.533-1.003 0.6-1.47v0zM161.55-12.9v9.65c0 0.267 0.033 0.557 0.1 0.87 0.067 0.32 0.177 0.613 0.33 0.88 0.147 0.267 0.313 0.5 0.5 0.7 0.18 0.2 0.403 0.3 0.67 0.3v0 0.5h-6.45v-0.5c0.233 0 0.45-0.1 0.65-0.3 0.2-0.2 0.377-0.433 0.53-0.7 0.147-0.267 0.253-0.56 0.32-0.88 0.067-0.313 0.1-0.603 0.1-0.87v0-9.3c0-1.2-0.167-2.25-0.5-3.15-0.333-0.9-0.783-1.65-1.35-2.25-0.567-0.6-1.207-1.043-1.92-1.33-0.72-0.28-1.447-0.42-2.18-0.42v0c-0.733 0-1.457 0.14-2.17 0.42-0.72 0.287-1.353 0.68-1.9 1.18-0.553 0.5-1.003 1.107-1.35 1.82-0.353 0.72-0.53 1.513-0.53 2.38v0 10.65c0 0.267 0.033 0.557 0.1 0.87 0.067 0.32 0.177 0.613 0.33 0.88 0.147 0.267 0.313 0.5 0.5 0.7 0.18 0.2 0.403 0.3 0.67 0.3v0 0.5h-6.5v-0.5c0.233 0 0.45-0.1 0.65-0.3 0.2-0.2 0.377-0.433 0.53-0.7 0.147-0.267 0.253-0.56 0.32-0.88 0.067-0.313 0.1-0.603 0.1-0.87v0-25.55c0-0.567-0.083-1.1-0.25-1.6-0.167-0.5-0.65-0.767-1.45-0.8v0-0.5l5-1.55v14.45c0.233-0.267 0.533-0.56 0.9-0.88 0.367-0.313 0.81-0.613 1.33-0.9 0.513-0.28 1.113-0.513 1.8-0.7 0.68-0.18 1.487-0.27 2.42-0.27v0c1.567 0 2.9 0.267 4 0.8 1.1 0.533 2 1.223 2.7 2.07 0.7 0.853 1.21 1.787 1.53 2.8 0.313 1.02 0.47 2.013 0.47 2.98z" fill="#3581c4" fill-rule="nonzero" stroke="none" stroke-width="1" stroke-linecap="butt" stroke-linejoin="miter" stroke-miterlimit="10" stroke-dasharray="" stroke-dashoffset="0" font-family="none" font-weight="none" font-size="none" text-anchor="none" style="mix-blend-mode: normal" data-fill-palette-color="primary" opacity="1"></path></g></svg></g></svg></g></svg></g></svg></g><g><svg viewBox="0 0 244.43135999999998 239.30540163267656" height="239.30540163267656" width="244.43135999999998"><g><svg xmlns="http://www.w3.org/2000/svg" xmlns:xlink="http://www.w3.org/1999/xlink" version="1.1" x="0" y="0" viewBox="12.833 13.540000000000003 69.334 67.88" enable-background="new 0 0 95 95" xml:space="preserve" height="239.30540163267656" width="244.43135999999998" class="icon-icon-0" data-fill-palette-color="accent" id="icon-0"><g fill="#703f13" data-fill-palette-color="accent"><path d="M35.784 69.836c0.046 0 0.095-0.01 0.143-0.027 0.216 0.019 0.435 0.027 0.656 0.027 4.365 0 7.917-3.552 7.917-7.917 0-0.903-0.159-1.804-0.473-2.675-0.175-0.485-0.397-0.954-0.662-1.395-0.193-0.75-0.065-1.43 0.382-2.02 0.628-0.83 1.848-1.374 3.254-1.48v26.571c0 0.276 0.224 0.5 0.5 0.5s0.5-0.224 0.5-0.5V54.352c1.405 0.105 2.625 0.65 3.252 1.479 0.447 0.59 0.575 1.269 0.382 2.019-0.265 0.44-0.486 0.909-0.662 1.396C50.66 60.116 50.5 61.016 50.5 61.92c0 4.365 3.552 7.917 7.917 7.917 0.216 0 0.429-0.009 0.64-0.026 0.051 0.019 0.104 0.026 0.159 0.026 11.282 0 22.951-9.229 22.951-24.674 0-14.928-14.825-31.623-34.667-31.623S12.833 30.234 12.833 45.162C12.833 60.605 24.502 69.836 35.784 69.836zM48.001 14.552c19.017 0.279 33.166 16.281 33.166 30.61 0 14.743-11.049 23.584-21.788 23.673-0.076-0.032-0.162-0.045-0.246-0.036-0.234 0.024-0.474 0.037-0.716 0.037-3.813 0-6.917-3.104-6.917-6.917 0-0.787 0.141-1.573 0.414-2.337 0.159-0.443 0.365-0.872 0.609-1.271 0.024-0.039 0.043-0.082 0.057-0.127 0.303-1.076 0.119-2.1-0.529-2.955-0.822-1.086-2.313-1.766-4.05-1.877V14.552zM47.001 14.552v38.8c-1.736 0.111-3.229 0.791-4.052 1.877-0.648 0.855-0.832 1.879-0.529 2.955 0.013 0.045 0.031 0.088 0.056 0.127 0.245 0.399 0.451 0.828 0.61 1.271 0.274 0.764 0.414 1.55 0.414 2.337 0 3.813-3.103 6.917-6.917 6.917-0.242 0-0.48-0.013-0.716-0.037-0.065-0.012-0.146 0.008-0.219 0.037-10.747-0.074-21.815-8.918-21.815-23.674C13.833 30.833 27.984 14.83 47.001 14.552z" fill="#703f13" data-fill-palette-color="accent"></path></g></svg></g></svg></g></svg></g><defs></defs></svg><rect width="395.52" height="143.47928936840432" fill="none" stroke="none" visibility="hidden"></rect></g></svg></g></svg>